<svg width="79" height="22" viewBox="0 0 79 22" fill="none" xmlns="http://www.w3.org/2000/svg">
<path d="M0.769886 21V0.636363H8.80398C10.3485 0.636363 11.6643 0.931344 12.7514 1.52131C13.8385 2.10464 14.6671 2.91667 15.2372 3.95739C15.8139 4.99148 16.1023 6.18466 16.1023 7.53693C16.1023 8.8892 15.8106 10.0824 15.2273 11.1165C14.6439 12.1506 13.7988 12.956 12.6918 13.5327C11.5914 14.1094 10.259 14.3977 8.6946 14.3977H3.57386V10.9474H7.99858C8.82718 10.9474 9.50994 10.8049 10.0469 10.5199C10.5904 10.2282 10.9948 9.82718 11.2599 9.31676C11.5317 8.79972 11.6676 8.20644 11.6676 7.53693C11.6676 6.86079 11.5317 6.27083 11.2599 5.76704C10.9948 5.25663 10.5904 4.86222 10.0469 4.58381C9.50331 4.29877 8.81392 4.15625 7.97869 4.15625H5.07528V21H0.769886ZM23.0442 21.2884C22.0698 21.2884 21.2014 21.1193 20.4391 20.7812C19.6768 20.4366 19.0736 19.9295 18.6294 19.2599C18.1919 18.5838 17.9732 17.742 17.9732 16.7344C17.9732 15.8859 18.129 15.1733 18.4405 14.5966C18.7521 14.0199 19.1763 13.5559 19.7132 13.2045C20.2502 12.8532 20.86 12.5881 21.5428 12.4091C22.2322 12.2301 22.9547 12.1042 23.7104 12.0312C24.5987 11.9384 25.3146 11.8523 25.8581 11.7727C26.4017 11.6866 26.7961 11.5606 27.0414 11.3949C27.2866 11.2292 27.4093 10.9839 27.4093 10.6591V10.5994C27.4093 9.9697 27.2104 9.48248 26.8127 9.13778C26.4216 8.79309 25.8648 8.62074 25.1422 8.62074C24.3799 8.62074 23.7734 8.78977 23.3226 9.12784C22.8719 9.45928 22.5736 9.87689 22.4277 10.3807L18.5101 10.0625C18.709 9.13447 19.1001 8.33239 19.6834 7.65625C20.2667 6.97348 21.0191 6.44981 21.9405 6.08523C22.8685 5.71401 23.9424 5.52841 25.1621 5.52841C26.0106 5.52841 26.8226 5.62784 27.5982 5.8267C28.3804 6.02557 29.0731 6.33381 29.6763 6.75142C30.2862 7.16903 30.7667 7.70597 31.1181 8.36222C31.4694 9.01184 31.6451 9.79072 31.6451 10.6989V21H27.628V18.8821H27.5087C27.2634 19.3594 26.9353 19.7803 26.5243 20.1449C26.1133 20.5028 25.6195 20.7846 25.0428 20.9901C24.4661 21.1889 23.7999 21.2884 23.0442 21.2884ZM24.2573 18.3651C24.8804 18.3651 25.4306 18.2424 25.9078 17.9972C26.3851 17.7453 26.7596 17.4072 27.0314 16.983C27.3032 16.5587 27.4391 16.0781 27.4391 15.5412V13.9205C27.3065 14.0066 27.1242 14.0862 26.8922 14.1591C26.6668 14.2254 26.4116 14.2884 26.1266 14.348C25.8416 14.401 25.5565 14.4508 25.2715 14.4972C24.9864 14.5369 24.7279 14.5734 24.4959 14.6065C23.9988 14.6795 23.5646 14.7955 23.1934 14.9545C22.8221 15.1136 22.5338 15.3291 22.3283 15.6009C22.1228 15.866 22.0201 16.1974 22.0201 16.5952C22.0201 17.1719 22.2289 17.6127 22.6465 17.9176C23.0707 18.2159 23.6077 18.3651 24.2573 18.3651ZM39.4471 12.1705V21H35.2113V5.72727H39.2482V8.42188H39.4272C39.7653 7.53362 40.332 6.83097 41.1275 6.31392C41.9229 5.79025 42.8874 5.52841 44.0209 5.52841C45.0815 5.52841 46.0063 5.76042 46.7951 6.22443C47.5839 6.68845 48.1971 7.35133 48.6346 8.21307C49.0721 9.06818 49.2908 10.089 49.2908 11.2756V21H45.055V12.0312C45.0617 11.0966 44.823 10.3674 44.3391 9.84375C43.8552 9.31345 43.189 9.0483 42.3405 9.0483C41.7705 9.0483 41.2667 9.17093 40.8292 9.41619C40.3983 9.66146 40.0602 10.0194 39.815 10.4901C39.5763 10.9541 39.4537 11.5142 39.4471 12.1705ZM61.0328 5.72727V8.90909H51.8354V5.72727H61.0328ZM53.9235 2.06818H58.1592V16.3068C58.1592 16.6979 58.2189 17.0028 58.3382 17.2216C58.4575 17.4337 58.6233 17.5829 58.8354 17.669C59.0541 17.7552 59.306 17.7983 59.5911 17.7983C59.7899 17.7983 59.9888 17.7817 60.1877 17.7486C60.3865 17.7088 60.539 17.679 60.645 17.6591L61.3112 20.8111C61.0991 20.8774 60.8008 20.9536 60.4163 21.0398C60.0319 21.1326 59.5646 21.1889 59.0144 21.2088C57.9935 21.2486 57.0986 21.1127 56.3297 20.8011C55.5674 20.4896 54.9741 20.0057 54.5499 19.3494C54.1256 18.6932 53.9168 17.8646 53.9235 16.8636V2.06818ZM70.8086 21.2983C69.2641 21.2983 67.9284 20.9702 66.8015 20.3139C65.6812 19.651 64.8161 18.7296 64.2063 17.5497C63.5964 16.3632 63.2915 14.9877 63.2915 13.4233C63.2915 11.8456 63.5964 10.4669 64.2063 9.28693C64.8161 8.10038 65.6812 7.17898 66.8015 6.52273C67.9284 5.85985 69.2641 5.52841 70.8086 5.52841C72.3531 5.52841 73.6855 5.85985 74.8057 6.52273C75.9326 7.17898 76.801 8.10038 77.4108 9.28693C78.0207 10.4669 78.3256 11.8456 78.3256 13.4233C78.3256 14.9877 78.0207 16.3632 77.4108 17.5497C76.801 18.7296 75.9326 19.651 74.8057 20.3139C73.6855 20.9702 72.3531 21.2983 70.8086 21.2983ZM70.8285 18.017C71.5311 18.017 72.1178 17.8182 72.5884 17.4205C73.059 17.0161 73.4137 16.4659 73.6523 15.7699C73.8976 15.0739 74.0202 14.2817 74.0202 13.3935C74.0202 12.5052 73.8976 11.7131 73.6523 11.017C73.4137 10.321 73.059 9.77083 72.5884 9.36648C72.1178 8.96212 71.5311 8.75994 70.8285 8.75994C70.1192 8.75994 69.5226 8.96212 69.0387 9.36648C68.5614 9.77083 68.2001 10.321 67.9549 11.017C67.7162 11.7131 67.5969 12.5052 67.5969 13.3935C67.5969 14.2817 67.7162 15.0739 67.9549 15.7699C68.2001 16.4659 68.5614 17.0161 69.0387 17.4205C69.5226 17.8182 70.1192 18.017 70.8285 18.017Z" fill="black"/>
</svg>
